<svg id="visual" viewBox="0 0 900 675" width="900" height="675" xmlns="http://www.w3.org/2000/svg" xmlns:xlink="http://www.w3.org/1999/xlink" version="1.1"><rect x="0" y="0" width="900" height="675" fill="#000000"></rect><defs><linearGradient id="grad1_0" x1="25%" y1="0%" x2="100%" y2="100%"><stop offset="23.333333333333336%" stop-color="#086267" stop-opacity="1"></stop><stop offset="76.66666666666666%" stop-color="#086267" stop-opacity="1"></stop></linearGradient></defs><defs><linearGradient id="grad1_1" x1="25%" y1="0%" x2="100%" y2="100%"><stop offset="23.333333333333336%" stop-color="#086267" stop-opacity="1"></stop><stop offset="76.66666666666666%" stop-color="#004449" stop-opacity="1"></stop></linearGradient></defs><defs><linearGradient id="grad1_2" x1="25%" y1="0%" x2="100%" y2="100%"><stop offset="23.333333333333336%" stop-color="#00282d" stop-opacity="1"></stop><stop offset="76.66666666666666%" stop-color="#004449" stop-opacity="1"></stop></linearGradient></defs><defs><linearGradient id="grad1_3" x1="25%" y1="0%" x2="100%" y2="100%"><stop offset="23.333333333333336%" stop-color="#00282d" stop-opacity="1"></stop><stop offset="76.66666666666666%" stop-color="#000000" stop-opacity="1"></stop></linearGradient></defs><defs><linearGradient id="grad2_0" x1="0%" y1="0%" x2="75%" y2="100%"><stop offset="23.333333333333336%" stop-color="#086267" stop-opacity="1"></stop><stop offset="76.66666666666666%" stop-color="#086267" stop-opacity="1"></stop></linearGradient></defs><defs><linearGradient id="grad2_1" x1="0%" y1="0%" x2="75%" y2="100%"><stop offset="23.333333333333336%" stop-color="#004449" stop-opacity="1"></stop><stop offset="76.66666666666666%" stop-color="#086267" stop-opacity="1"></stop></linearGradient></defs><defs><linearGradient id="grad2_2" x1="0%" y1="0%" x2="75%" y2="100%"><stop offset="23.333333333333336%" stop-color="#004449" stop-opacity="1"></stop><stop offset="76.66666666666666%" stop-color="#00282d" stop-opacity="1"></stop></linearGradient></defs><defs><linearGradient id="grad2_3" x1="0%" y1="0%" x2="75%" y2="100%"><stop offset="23.333333333333336%" stop-color="#000000" stop-opacity="1"></stop><stop offset="76.66666666666666%" stop-color="#00282d" stop-opacity="1"></stop></linearGradient></defs><g transform="translate(900, 0)"><path d="M0 478.1C-36.4 431.7 -72.7 385.2 -122.4 376.6C-172 368 -235 397.2 -280.4 385.9C-325.8 374.6 -353.6 322.9 -381.9 277.4C-410.1 232 -438.6 192.9 -454.7 147.7C-470.8 102.6 -474.5 51.3 -478.1 0L0 0Z" fill="#001d20"></path><path d="M0 358.6C-27.3 323.8 -54.5 288.9 -91.8 282.5C-129 276 -176.2 297.9 -210.3 289.4C-244.3 281 -265.2 242.1 -286.4 208.1C-307.5 174 -329 144.7 -341 110.8C-353.1 76.9 -355.9 38.5 -358.6 0L0 0Z" fill="#00363b"></path><path d="M0 239.1C-18.2 215.8 -36.4 192.6 -61.2 188.3C-86 184 -117.5 198.6 -140.2 193C-162.9 187.3 -176.8 161.4 -190.9 138.7C-205 116 -219.3 96.5 -227.4 73.9C-235.4 51.3 -237.2 25.6 -239.1 0L0 0Z" fill="#005358"></path><path d="M0 119.5C-9.1 107.9 -18.2 96.3 -30.6 94.2C-43 92 -58.7 99.3 -70.1 96.5C-81.4 93.7 -88.4 80.7 -95.5 69.4C-102.5 58 -109.7 48.2 -113.7 36.9C-117.7 25.6 -118.6 12.8 -119.5 0L0 0Z" fill="#086267"></path></g><g transform="translate(0, 675)"><path d="M0 -478.1C35.4 -432.7 70.9 -387.4 123.6 -380.4C176.3 -373.5 246.3 -405 278.6 -383.5C310.9 -362 305.6 -287.4 334.1 -242.8C362.7 -198.1 425.1 -183.2 454.7 -147.7C484.4 -112.3 481.2 -56.1 478.1 0L0 0Z" fill="#001d20"></path><path d="M0 -358.6C26.6 -324.6 53.2 -290.5 92.7 -285.3C132.2 -280.1 184.7 -303.7 209 -287.6C233.2 -271.5 229.2 -215.6 250.6 -182.1C272 -148.6 318.8 -137.4 341 -110.8C363.3 -84.2 360.9 -42.1 358.6 0L0 0Z" fill="#00363b"></path><path d="M0 -239.1C17.7 -216.4 35.4 -193.7 61.8 -190.2C88.2 -186.7 123.1 -202.5 139.3 -191.7C155.5 -181 152.8 -143.7 167.1 -121.4C181.3 -99 212.5 -91.6 227.4 -73.9C242.2 -56.1 240.6 -28.1 239.1 0L0 0Z" fill="#005358"></path><path d="M0 -119.5C8.9 -108.2 17.7 -96.8 30.9 -95.1C44.1 -93.4 61.6 -101.2 69.7 -95.9C77.7 -90.5 76.4 -71.9 83.5 -60.7C90.7 -49.5 106.3 -45.8 113.7 -36.9C121.1 -28.1 120.3 -14 119.5 0L0 0Z" fill="#086267"></path></g></svg>