<svg id="visual" viewBox="0 0 900 675" width="900" height="675" xmlns="http://www.w3.org/2000/svg" xmlns:xlink="http://www.w3.org/1999/xlink" version="1.1"><rect x="0" y="0" width="900" height="675" fill="#000000"></rect><defs><linearGradient id="grad1_0" x1="25%" y1="0%" x2="100%" y2="100%"><stop offset="23.333333333333336%" stop-color="#481878" stop-opacity="1"></stop><stop offset="76.66666666666666%" stop-color="#481878" stop-opacity="1"></stop></linearGradient></defs><defs><linearGradient id="grad1_1" x1="25%" y1="0%" x2="100%" y2="100%"><stop offset="23.333333333333336%" stop-color="#481878" stop-opacity="1"></stop><stop offset="76.66666666666666%" stop-color="#350466" stop-opacity="1"></stop></linearGradient></defs><defs><linearGradient id="grad1_2" x1="25%" y1="0%" x2="100%" y2="100%"><stop offset="23.333333333333336%" stop-color="#210054" stop-opacity="1"></stop><stop offset="76.66666666666666%" stop-color="#350466" stop-opacity="1"></stop></linearGradient></defs><defs><linearGradient id="grad1_3" x1="25%" y1="0%" x2="100%" y2="100%"><stop offset="23.333333333333336%" stop-color="#210054" stop-opacity="1"></stop><stop offset="76.66666666666666%" stop-color="#000000" stop-opacity="1"></stop></linearGradient></defs><defs><linearGradient id="grad2_0" x1="0%" y1="0%" x2="75%" y2="100%"><stop offset="23.333333333333336%" stop-color="#481878" stop-opacity="1"></stop><stop offset="76.66666666666666%" stop-color="#481878" stop-opacity="1"></stop></linearGradient></defs><defs><linearGradient id="grad2_1" x1="0%" y1="0%" x2="75%" y2="100%"><stop offset="23.333333333333336%" stop-color="#350466" stop-opacity="1"></stop><stop offset="76.66666666666666%" stop-color="#481878" stop-opacity="1"></stop></linearGradient></defs><defs><linearGradient id="grad2_2" x1="0%" y1="0%" x2="75%" y2="100%"><stop offset="23.333333333333336%" stop-color="#350466" stop-opacity="1"></stop><stop offset="76.66666666666666%" stop-color="#210054" stop-opacity="1"></stop></linearGradient></defs><defs><linearGradient id="grad2_3" x1="0%" y1="0%" x2="75%" y2="100%"><stop offset="23.333333333333336%" stop-color="#000000" stop-opacity="1"></stop><stop offset="76.66666666666666%" stop-color="#210054" stop-opacity="1"></stop></linearGradient></defs><g transform="translate(900, 0)"><path d="M0 478.1C-50.6 475.3 -101.1 472.5 -147.7 454.7C-194.4 437 -237 404.3 -262.7 361.6C-288.5 319 -297.2 266.4 -310.7 225.7C-324.1 185 -342.2 156.2 -370.9 120.5C-399.6 84.9 -438.9 42.4 -478.1 0L0 0Z" fill="#19004b"></path><path d="M0 358.6C-37.9 356.5 -75.9 354.4 -110.8 341C-145.8 327.7 -177.8 303.2 -197.1 271.2C-216.3 239.2 -222.9 199.8 -233 169.3C-243.1 138.8 -256.7 117.1 -278.2 90.4C-299.7 63.7 -329.1 31.8 -358.6 0L0 0Z" fill="#2b005d"></path><path d="M0 239.1C-25.3 237.7 -50.6 236.2 -73.9 227.4C-97.2 218.5 -118.5 202.1 -131.4 180.8C-144.2 159.5 -148.6 133.2 -155.3 112.9C-162.1 92.5 -171.1 78.1 -185.5 60.3C-199.8 42.4 -219.4 21.2 -239.1 0L0 0Z" fill="#3f0e6f"></path><path d="M0 119.5C-12.6 118.8 -25.3 118.1 -36.9 113.7C-48.6 109.2 -59.3 101.1 -65.7 90.4C-72.1 79.7 -74.3 66.6 -77.7 56.4C-81 46.3 -85.6 39 -92.7 30.1C-99.9 21.2 -109.7 10.6 -119.5 0L0 0Z" fill="#481878"></path></g><g transform="translate(0, 675)"><path d="M0 -478.1C42.4 -445.5 84.7 -412.9 129.2 -397.5C173.6 -382.2 220.2 -384.1 268.6 -369.7C317 -355.4 367.3 -324.7 386.8 -281C406.3 -237.4 395.1 -180.7 405.2 -131.6C415.2 -82.6 446.7 -41.3 478.1 0L0 0Z" fill="#19004b"></path><path d="M0 -358.6C31.8 -334.1 63.5 -309.7 96.9 -298.2C130.2 -286.6 165.1 -288.1 201.5 -277.3C237.8 -266.5 275.5 -243.5 290.1 -210.8C304.7 -178 296.3 -135.5 303.9 -98.7C311.4 -62 335 -31 358.6 0L0 0Z" fill="#2b005d"></path><path d="M0 -239.1C21.2 -222.8 42.4 -206.4 64.6 -198.8C86.8 -191.1 110.1 -192 134.3 -184.9C158.5 -177.7 183.7 -162.4 193.4 -140.5C203.2 -118.7 197.5 -90.3 202.6 -65.8C207.6 -41.3 223.3 -20.7 239.1 0L0 0Z" fill="#3f0e6f"></path><path d="M0 -119.5C10.6 -111.4 21.2 -103.2 32.3 -99.4C43.4 -95.5 55 -96 67.2 -92.4C79.3 -88.8 91.8 -81.2 96.7 -70.3C101.6 -59.3 98.8 -45.2 101.3 -32.9C103.8 -20.7 111.7 -10.3 119.5 0L0 0Z" fill="#481878"></path></g></svg>