<svg id="visual" viewBox="0 0 960 540" width="960" height="540" xmlns="http://www.w3.org/2000/svg" xmlns:xlink="http://www.w3.org/1999/xlink" version="1.1"><rect x="0" y="0" width="960" height="540" fill="#ffffff"></rect><defs><linearGradient id="grad1_0" x1="43.8%" y1="0%" x2="100%" y2="100%"><stop offset="14.444444444444446%" stop-color="#fbae3c" stop-opacity="1"></stop><stop offset="85.55555555555554%" stop-color="#fbae3c" stop-opacity="1"></stop></linearGradient></defs><defs><linearGradient id="grad1_1" x1="43.8%" y1="0%" x2="100%" y2="100%"><stop offset="14.444444444444446%" stop-color="#fbae3c" stop-opacity="1"></stop><stop offset="85.55555555555554%" stop-color="#ffc880" stop-opacity="1"></stop></linearGradient></defs><defs><linearGradient id="grad1_2" x1="43.8%" y1="0%" x2="100%" y2="100%"><stop offset="14.444444444444446%" stop-color="#ffe3bf" stop-opacity="1"></stop><stop offset="85.55555555555554%" stop-color="#ffc880" stop-opacity="1"></stop></linearGradient></defs><defs><linearGradient id="grad1_3" x1="43.8%" y1="0%" x2="100%" y2="100%"><stop offset="14.444444444444446%" stop-color="#ffe3bf" stop-opacity="1"></stop><stop offset="85.55555555555554%" stop-color="#ffffff" stop-opacity="1"></stop></linearGradient></defs><defs><linearGradient id="grad2_0" x1="0%" y1="0%" x2="56.3%" y2="100%"><stop offset="14.444444444444446%" stop-color="#fbae3c" stop-opacity="1"></stop><stop offset="85.55555555555554%" stop-color="#fbae3c" stop-opacity="1"></stop></linearGradient></defs><defs><linearGradient id="grad2_1" x1="0%" y1="0%" x2="56.3%" y2="100%"><stop offset="14.444444444444446%" stop-color="#ffc880" stop-opacity="1"></stop><stop offset="85.55555555555554%" stop-color="#fbae3c" stop-opacity="1"></stop></linearGradient></defs><defs><linearGradient id="grad2_2" x1="0%" y1="0%" x2="56.3%" y2="100%"><stop offset="14.444444444444446%" stop-color="#ffc880" stop-opacity="1"></stop><stop offset="85.55555555555554%" stop-color="#ffe3bf" stop-opacity="1"></stop></linearGradient></defs><defs><linearGradient id="grad2_3" x1="0%" y1="0%" x2="56.3%" y2="100%"><stop offset="14.444444444444446%" stop-color="#ffffff" stop-opacity="1"></stop><stop offset="85.55555555555554%" stop-color="#ffe3bf" stop-opacity="1"></stop></linearGradient></defs><g transform="translate(960, 0)"><path d="M0 243C-28.8 231.3 -57.5 219.7 -86.5 208.8C-115.5 197.9 -144.6 187.8 -169 169C-193.4 150.2 -213 122.6 -224.5 93C-236 63.4 -239.5 31.7 -243 0L0 0Z" fill="#fff1df"></path><path d="M0 182.3C-21.6 173.5 -43.1 164.8 -64.9 156.6C-86.6 148.4 -108.5 140.9 -126.7 126.7C-145 112.6 -159.7 92 -168.4 69.7C-177 47.5 -179.6 23.8 -182.2 0L0 0Z" fill="#ffd69f"></path><path d="M0 121.5C-14.4 115.7 -28.8 109.8 -43.2 104.4C-57.7 99 -72.3 93.9 -84.5 84.5C-96.7 75.1 -106.5 61.3 -112.3 46.5C-118 31.7 -119.8 15.8 -121.5 0L0 0Z" fill="#ffbb5f"></path><path d="M0 60.8C-7.2 57.8 -14.4 54.9 -21.6 52.2C-28.9 49.5 -36.2 47 -42.2 42.2C-48.3 37.5 -53.2 30.7 -56.1 23.2C-59 15.8 -59.9 7.9 -60.7 0L0 0Z" fill="#fbae3c"></path></g><g transform="translate(0, 540)"><path d="M0 -243C26.8 -223.9 53.6 -204.7 79.2 -191.2C104.9 -177.8 129.4 -170 155.6 -155.6C181.8 -141.1 209.6 -120 224.5 -93C239.4 -66 241.2 -33 243 0L0 0Z" fill="#fff1df"></path><path d="M0 -182.2C20.1 -167.9 40.2 -153.5 59.4 -143.4C78.6 -133.3 97 -127.5 116.7 -116.7C136.3 -105.8 157.2 -90 168.4 -69.7C179.5 -49.5 180.9 -24.7 182.3 0L0 0Z" fill="#ffd69f"></path><path d="M0 -121.5C13.4 -111.9 26.8 -102.4 39.6 -95.6C52.4 -88.9 64.7 -85 77.8 -77.8C90.9 -70.6 104.8 -60 112.3 -46.5C119.7 -33 120.6 -16.5 121.5 0L0 0Z" fill="#ffbb5f"></path><path d="M0 -60.7C6.7 -56 13.4 -51.2 19.8 -47.8C26.2 -44.4 32.3 -42.5 38.9 -38.9C45.4 -35.3 52.4 -30 56.1 -23.2C59.8 -16.5 60.3 -8.2 60.8 0L0 0Z" fill="#fbae3c"></path></g></svg>