<svg id="visual" viewBox="0 0 960 540" width="960" height="540" xmlns="http://www.w3.org/2000/svg" xmlns:xlink="http://www.w3.org/1999/xlink" version="1.1"><rect x="0" y="0" width="960" height="540" fill="#FFFFFF"></rect><defs><linearGradient id="grad1_0" x1="43.8%" y1="0%" x2="100%" y2="100%"><stop offset="14.444444444444446%" stop-color="#fbae3c" stop-opacity="1"></stop><stop offset="85.55555555555554%" stop-color="#fbae3c" stop-opacity="1"></stop></linearGradient></defs><defs><linearGradient id="grad1_1" x1="43.8%" y1="0%" x2="100%" y2="100%"><stop offset="14.444444444444446%" stop-color="#fbae3c" stop-opacity="1"></stop><stop offset="85.55555555555554%" stop-color="#ffc880" stop-opacity="1"></stop></linearGradient></defs><defs><linearGradient id="grad1_2" x1="43.8%" y1="0%" x2="100%" y2="100%"><stop offset="14.444444444444446%" stop-color="#ffe3bf" stop-opacity="1"></stop><stop offset="85.55555555555554%" stop-color="#ffc880" stop-opacity="1"></stop></linearGradient></defs><defs><linearGradient id="grad1_3" x1="43.8%" y1="0%" x2="100%" y2="100%"><stop offset="14.444444444444446%" stop-color="#ffe3bf" stop-opacity="1"></stop><stop offset="85.55555555555554%" stop-color="#ffffff" stop-opacity="1"></stop></linearGradient></defs><defs><linearGradient id="grad2_0" x1="0%" y1="0%" x2="56.3%" y2="100%"><stop offset="14.444444444444446%" stop-color="#fbae3c" stop-opacity="1"></stop><stop offset="85.55555555555554%" stop-color="#fbae3c" stop-opacity="1"></stop></linearGradient></defs><defs><linearGradient id="grad2_1" x1="0%" y1="0%" x2="56.3%" y2="100%"><stop offset="14.444444444444446%" stop-color="#ffc880" stop-opacity="1"></stop><stop offset="85.55555555555554%" stop-color="#fbae3c" stop-opacity="1"></stop></linearGradient></defs><defs><linearGradient id="grad2_2" x1="0%" y1="0%" x2="56.3%" y2="100%"><stop offset="14.444444444444446%" stop-color="#ffc880" stop-opacity="1"></stop><stop offset="85.55555555555554%" stop-color="#ffe3bf" stop-opacity="1"></stop></linearGradient></defs><defs><linearGradient id="grad2_3" x1="0%" y1="0%" x2="56.3%" y2="100%"><stop offset="14.444444444444446%" stop-color="#ffffff" stop-opacity="1"></stop><stop offset="85.55555555555554%" stop-color="#ffe3bf" stop-opacity="1"></stop></linearGradient></defs><g transform="translate(960, 0)"><path d="M0 486C-65.3 481.6 -130.6 477.2 -186 449C-241.3 420.8 -286.8 368.7 -316.8 316.8C-346.8 264.9 -361.5 213.1 -387.1 160.3C-412.7 107.6 -449.4 53.8 -486 0L0 0Z" fill="#fff1df"></path><path d="M0 364.5C-49 361.2 -98 357.9 -139.5 336.8C-181 315.6 -215.1 276.5 -237.6 237.6C-260.1 198.7 -271.1 159.8 -290.3 120.3C-309.6 80.7 -337 40.3 -364.5 0L0 0Z" fill="#ffd69f"></path><path d="M0 243C-32.7 240.8 -65.3 238.6 -93 224.5C-120.7 210.4 -143.4 184.3 -158.4 158.4C-173.4 132.4 -180.7 106.6 -193.6 80.2C-206.4 53.8 -224.7 26.9 -243 0L0 0Z" fill="#ffbb5f"></path><path d="M0 121.5C-16.3 120.4 -32.7 119.3 -46.5 112.3C-60.3 105.2 -71.7 92.2 -79.2 79.2C-86.7 66.2 -90.4 53.3 -96.8 40.1C-103.2 26.9 -112.3 13.4 -121.5 0L0 0Z" fill="#fbae3c"></path></g><g transform="translate(0, 540)"><path d="M0 -486C61.1 -465.1 122.3 -444.3 171.4 -413.9C220.6 -383.5 257.7 -343.6 306.9 -306.9C356 -270.2 417.2 -236.6 449 -186C480.9 -135.4 483.4 -67.7 486 0L0 0Z" fill="#fff1df"></path><path d="M0 -364.5C45.9 -348.9 91.7 -333.2 128.6 -310.4C165.4 -287.6 193.3 -257.7 230.2 -230.2C267 -202.6 312.9 -177.5 336.8 -139.5C360.6 -101.5 362.6 -50.8 364.5 0L0 0Z" fill="#ffd69f"></path><path d="M0 -243C30.6 -232.6 61.1 -222.1 85.7 -206.9C110.3 -191.8 128.9 -171.8 153.4 -153.4C178 -135.1 208.6 -118.3 224.5 -93C240.4 -67.7 241.7 -33.8 243 0L0 0Z" fill="#ffbb5f"></path><path d="M0 -121.5C15.3 -116.3 30.6 -111.1 42.9 -103.5C55.1 -95.9 64.4 -85.9 76.7 -76.7C89 -67.5 104.3 -59.2 112.3 -46.5C120.2 -33.8 120.9 -16.9 121.5 0L0 0Z" fill="#fbae3c"></path></g></svg>